<svg width="47" height="47" viewBox="0 0 47 47" fill="none" xmlns="http://www.w3.org/2000/svg">
<path fill-rule="evenodd" clip-rule="evenodd" d="M23.5 47C36.4787 47 47 36.4787 47 23.5C47 10.5213 36.4787 0 23.5 0C10.5213 0 0 10.5213 0 23.5C0 36.4787 10.5213 47 23.5 47Z" fill="#32CB82"/>
<path fill-rule="evenodd" clip-rule="evenodd" d="M11.5565 23.8933C12.1301 23.3197 13.06 23.3197 13.6336 23.8933L19.865 30.1246L33.3663 16.6233C33.9399 16.0497 34.8699 16.0497 35.4435 16.6233C36.017 17.1969 36.017 18.1269 35.4435 18.7004L21.9421 32.2018C20.795 33.3489 18.935 33.3489 17.7879 32.2018L11.5565 25.9704C10.9829 25.3968 10.9829 24.4668 11.5565 23.8933Z" fill="white"/>
</svg>
